<svg xmlns="http://www.w3.org/2000/svg" width="410" height="404" viewBox="0 0 410 404" fill="none">
  <path d="M399.641 59.5246L215.643 388.545C211.844 395.338 202.084 395.404 198.198 388.674L10.5817 59.5563C6.24566 52.0432 12.6802 43.0016 21.3695 44.7586L205.223 81.3433C206.398 81.5777 207.601 81.574 208.775 81.3325L388.73 44.8058C397.386 43.0409 403.854 52.0402 399.555 59.5744L399.641 59.5246Z" fill="url(#paint0_linear)"/>
  <path d="M292.965 1.5744L156.3 28.2552C154.197 28.6649 152.522 30.3193 152.134 32.4117L127.221 167.764C126.748 170.398 128.95 172.727 131.624 172.379L175.497 166.585C178.347 166.209 180.918 168.609 180.497 171.469L170.014 243.219C169.58 246.163 172.323 248.535 175.198 247.984L199.947 243.365C202.834 242.812 205.58 245.201 205.137 248.153L192.337 333.721C191.674 338.175 197.889 340.516 200.292 336.627L201.5 334.648L322.126 112.31C323.616 109.543 321.259 106.307 318.207 106.892L273.002 115.488C270.079 116.05 267.672 113.368 268.444 110.486L298.136 1.88961C298.913 -1.0073 296.43 -3.62017 293.486 -3.04344L292.965 1.5744Z" fill="url(#paint1_linear)"/>
  <defs>
    <linearGradient id="paint0_linear" x1="6.00017" y1="33.9999" x2="235" y2="344" gradientUnits="userSpaceOnUse">
      <stop stop-color="#41D1FF"/>
      <stop offset="1" stop-color="#BD34FE"/>
    </linearGradient>
    <linearGradient id="paint1_linear" x1="194.651" y1="8.81818" x2="236.076" y2="292.989" gradientUnits="userSpaceOnUse">
      <stop stop-color="#FFEA83"/>
      <stop offset="0.0833333" stop-color="#FFDD35"/>
      <stop offset="1" stop-color="#FFA800"/>
    </linearGradient>
  </defs>
</svg>
